<svg width="1440" height="770" viewBox="0 0 1440 770" fill="none" xmlns="http://www.w3.org/2000/svg">
<path d="M0.5 2.03615C0.5 -20.0552 18.4086 -37.9639 40.5 -37.9639H51.3468C70.7501 -37.9639 87.3552 -24.0384 90.7352 -4.93177L91.4315 -0.995944C94.8115 18.1107 111.417 32.0361 130.82 32.0361H466.218C478.048 32.0361 489.272 37.273 496.872 46.3392L537.164 94.4037C544.764 103.47 555.988 108.707 567.818 108.707H862.206C873.87 108.707 884.953 103.616 892.552 94.7667L934.451 45.9761C942.05 37.1273 953.133 32.0361 964.797 32.0361H1313.59C1332.15 32.0361 1348.28 19.2635 1352.53 1.19223L1356.83 -17.1199C1361.08 -35.1912 1377.21 -47.9639 1395.77 -47.9639H1400C1422.09 -47.9639 1440 -30.0553 1440 -7.96387V769.013H0.5V2.03615Z" fill="#151515"/>
</svg>
